<svg width="64" height="64" xmlns="http://www.w3.org/2000/svg" stroke="null">
 <g stroke="null">
  <title stroke="null">Layer 1</title>
  <g stroke="null" id="svg_4">
   <path stroke="null" id="svg_1" p-id="6936" fill="#8a8a8a" d="m32,52.85128c-2.81434,0 -5.54481,-0.54983 -8.11686,-1.64014c-2.48352,-1.04839 -4.71076,-2.55341 -6.62582,-4.46846c-1.91506,-1.91506 -3.42007,-4.1423 -4.46846,-6.62582c-1.08566,-2.57206 -1.64014,-5.30252 -1.64014,-8.11686s0.54983,-5.54481 1.64014,-8.11686c1.04839,-2.48352 2.55341,-4.71076 4.46846,-6.62582c1.91506,-1.91506 4.1423,-3.42007 6.62582,-4.46846c2.57206,-1.08566 5.30252,-1.64014 8.11686,-1.64014s5.54481,0.54983 8.11686,1.64014c2.48352,1.04839 4.71076,2.55341 6.62582,4.46846c1.91506,1.91506 3.42007,4.1423 4.46846,6.62582c1.08566,2.57206 1.64014,5.30252 1.64014,8.11686s-0.54983,5.54481 -1.64014,8.11686c-1.04839,2.48352 -2.55341,4.71076 -4.46846,6.62582c-1.91506,1.91506 -4.1423,3.42007 -6.62582,4.46846c-2.57206,1.09032 -5.30252,1.64014 -8.11686,1.64014zm0,-39.09326c-2.46487,0 -4.85055,0.47993 -7.10109,1.43513c-2.17133,0.91792 -4.12366,2.23191 -5.80109,3.90932s-2.9914,3.6251 -3.90932,5.80109c-0.95054,2.24589 -1.43513,4.6362 -1.43513,7.10109s0.47993,4.85055 1.43513,7.10109c0.91792,2.17133 2.23191,4.12366 3.90932,5.80109c1.67743,1.67743 3.6251,2.9914 5.80109,3.90932c2.24589,0.95054 4.6362,1.43513 7.10109,1.43513s4.85055,-0.47993 7.10109,-1.43513c2.17133,-0.91792 4.12366,-2.23191 5.80109,-3.90932c1.67743,-1.67743 2.9914,-3.6251 3.90932,-5.80109c0.95054,-2.24589 1.43513,-4.6362 1.43513,-7.10109s-0.48924,-4.8552 -1.43979,-7.10575c-0.91792,-2.17133 -2.23191,-4.12366 -3.90932,-5.80109s-3.6251,-2.9914 -5.80109,-3.90932c-2.24589,-0.94588 -4.6362,-1.43047 -7.09643,-1.43047z"/>
   <path stroke="null" id="svg_2" p-id="6937" fill="#8a8a8a" d="m32,43.76058c-0.72223,0 -1.30466,-0.58243 -1.30466,-1.30466l0,-13.73622c0,-0.72223 0.58243,-1.30466 1.30466,-1.30466s1.30466,0.58243 1.30466,1.30466l0,13.73622c0,0.72223 -0.5871,1.30466 -1.30466,1.30466z"/>
   <path stroke="null" id="svg_3" p-id="6938" fill="#8a8a8a" d="m32,22.89997m-1.83585,0a1.83585,1.83585 0 1 0 3.67169,0a1.83585,1.83585 0 1 0 -3.67169,0z"/>
  </g>
 </g>
</svg>