<svg width="64" height="64" xmlns="http://www.w3.org/2000/svg" stroke="null">
 <g stroke="null">
  <title stroke="null">Layer 1</title>
  <g stroke="null" id="svg_3">
   <path stroke="null" id="svg_1" p-id="15275" fill="#8a8a8a" d="m46.9117,25.17567l0,19.5966c0,1.08135 -0.44677,2.10531 -1.26585,2.8777c-0.81443,0.77239 -1.89413,1.20051 -3.03433,1.20051l-4.33277,0l0,-10.4162c0,-1.89786 -1.62886,-3.44264 -3.63003,-3.44264l-5.29612,0c-2.00117,0 -3.63003,1.54478 -3.63003,3.44264l0,10.4162l-4.33277,0c-1.1402,0 -2.2199,-0.4237 -3.03433,-1.20051c-0.81443,-0.77239 -1.26585,-1.79635 -1.26585,-2.8777l0,-19.5966l-2.60617,0l0,19.5966c0,3.61037 3.09949,6.54984 6.90637,6.54984l21.22172,0c3.80687,0 6.90637,-2.9395 6.90637,-6.54984l0,-19.5966l-2.60617,0l0.00001,0l-0.00004,0l-0.00001,0zm-18.58297,13.26301c0,-0.53405 0.46073,-0.971 1.02386,-0.971l5.29147,0c0.56312,0 1.02386,0.43695 1.02386,0.971l0,10.4162l-7.33918,0l0,-10.4162l0,0l-0.00001,0z"/>
   <path stroke="null" d="m52.67786,28.42412c-0.43746,0.54287 -1.25655,0.63998 -1.82898,0.2251l-18.22462,-13.29832c-0.36765,-0.26924 -0.87958,-0.26924 -1.24725,0l-18.22928,13.29832c-0.57243,0.41488 -1.38686,0.31337 -1.82898,-0.2251c-0.43746,-0.54287 -0.33043,-1.31527 0.23735,-1.73456l18.22928,-13.29832c1.30309,-0.95335 3.12275,-0.94893 4.42585,0l18.22928,13.30272c0.57243,0.41488 0.67947,1.19168 0.23735,1.73015l0,0.00001z" fill="#8a8a8a" p-id="15276" id="svg_2"/>
  </g>
 </g>
</svg>