<svg width="64" height="64" xmlns="http://www.w3.org/2000/svg" stroke="null">
 <g stroke="null">
  <title stroke="null">Layer 1</title>
  <path stroke="null" id="svg_1" p-id="12114" fill="#8a8a8a" d="m19.11038,20.94295l-4.91034,0c-0.73655,0 -1.22758,-0.65523 -1.22758,-1.63809s0.49103,-1.63809 1.22758,-1.63809l4.91034,0c0.73655,0 1.22758,0.65523 1.22758,1.63809s-0.49103,1.63809 -1.22758,1.63809zm0,12.28562l-4.91034,0c-0.73655,0 -1.22758,-0.65523 -1.22758,-1.63809s0.49103,-1.63809 1.22758,-1.63809l4.91034,0c0.73655,0 1.22758,0.65523 1.22758,1.63809s-0.49103,1.63809 -1.22758,1.63809zm0,13.10466l-4.91034,0c-0.73655,0 -1.22758,-0.65523 -1.22758,-1.63809s0.49103,-1.63809 1.22758,-1.63809l4.91034,0c0.73655,0 1.22758,0.65523 1.22758,1.63809s-0.49103,1.63809 -1.22758,1.63809zm30.68959,-25.39028l-23.32408,0c-0.73655,0 -1.22758,-0.65523 -1.22758,-1.63809s0.49103,-1.63809 1.22758,-1.63809l23.32408,0c0.73655,0 1.22758,0.65523 1.22758,1.63809s-0.49103,1.63809 -1.22758,1.63809zm0,12.28562l-23.32408,0c-0.73655,0 -1.22758,-0.65523 -1.22758,-1.63809s0.49103,-1.63809 1.22758,-1.63809l23.32408,0c0.73655,0 1.22758,0.65523 1.22758,1.63809s-0.49103,1.63809 -1.22758,1.63809zm0,13.10466l-23.32408,0c-0.73655,0 -1.22758,-0.65523 -1.22758,-1.63809s0.49103,-1.63809 1.22758,-1.63809l23.32408,0c0.73655,0 1.22758,0.65523 1.22758,1.63809s-0.49103,1.63809 -1.22758,1.63809z"/>
 </g>

</svg>