<svg width="64" height="64" xmlns="http://www.w3.org/2000/svg" stroke="null">
 <g stroke="null">
  <title stroke="null">Layer 1</title>
  <g stroke="null" id="svg_3">
   <path stroke="null" id="svg_1" p-id="6629" fill="#8a8a8a" d="m32.03798,39.85458c-4.07093,0 -7.38563,-3.30978 -7.38563,-7.38563c0,-4.07093 3.30978,-7.38563 7.38563,-7.38563c4.07093,0 7.38563,3.30978 7.38563,7.38563c-0.00491,4.07585 -3.3147,7.38563 -7.38563,7.38563zm0,-12.01638c-2.55354,0 -4.63566,2.07721 -4.63566,4.63566c0,2.55354 2.07721,4.63566 4.63566,4.63566s4.63075,-2.08212 4.63075,-4.63566c0,-2.55354 -2.07721,-4.63566 -4.63075,-4.63566z"/>
   <path stroke="null" id="svg_2" p-id="6630" fill="#8a8a8a" d="m37.85711,53.41782c-0.74642,0 -1.47811,-0.29464 -2.02319,-0.84955l-3.11827,-3.1821c-0.20134,-0.20625 -0.46651,-0.31919 -0.75624,-0.31919c-0.28481,0 -0.55491,0.11294 -0.75133,0.31428l-3.11827,3.16246c-0.85445,0.86428 -2.16068,1.09017 -3.25085,0.55981l-4.64057,-2.24417c-1.09017,-0.53035 -1.72855,-1.69417 -1.58123,-2.89729l0.54017,-4.4245c0.03438,-0.28481 -0.04419,-0.56472 -0.22098,-0.7857c-0.17679,-0.22589 -0.43213,-0.36339 -0.71696,-0.39285l-4.41468,-0.46651c-1.20802,-0.12768 -2.19998,-1.00668 -2.46515,-2.19015l-1.154,-5.02851c-0.27009,-1.18347 0.24553,-2.40622 1.27677,-3.04461l3.79594,-2.33747c0.24553,-0.15223 0.41249,-0.38794 0.47634,-0.66294c0.06383,-0.27991 0.01473,-0.56472 -0.13749,-0.80534l-2.39149,-3.74683c-0.65312,-1.02142 -0.58436,-2.34729 0.17187,-3.29505l3.21648,-4.02674c0.75624,-0.94776 2.03302,-1.31115 3.17719,-0.89865l4.1937,1.50757c0.27009,0.09821 0.55981,0.08348 0.81517,-0.04419c0.25536,-0.12277 0.45178,-0.34375 0.54508,-0.61383l1.43391,-4.20353c0.39285,-1.14909 1.46828,-1.92006 2.68121,-1.92006l5.15619,0c1.21293,0 2.29328,0.77098 2.68121,1.92006l1.45355,4.26245c0.0933,0.27009 0.28481,0.48615 0.54017,0.61383s0.54508,0.13749 0.81517,0.04419l4.22808,-1.50266c1.14419,-0.40758 2.41604,-0.03928 3.17228,0.90847l3.20175,4.04147c0.75133,0.95266 0.82008,2.27364 0.16205,3.29505l-2.41113,3.74683c-0.15714,0.24062 -0.20625,0.52544 -0.14241,0.80534c0.06383,0.27991 0.2308,0.51562 0.47634,0.66785l3.77138,2.34238c1.03124,0.63838 1.54194,1.86605 1.26695,3.04461l-1.15891,5.0236a2.83197,2.83197 0 0 1 -2.47497,2.18033l-4.43432,0.45178c-0.28481,0.02947 -0.54017,0.16696 -0.71696,0.39285c-0.17679,0.22098 -0.26026,0.50089 -0.22589,0.7857l0.52544,4.40977c0.14241,1.20311 -0.49598,2.36694 -1.59106,2.89238l-4.65039,2.22944c-0.39776,0.19151 -0.81517,0.27991 -1.22766,0.27991l0.00001,0zm-5.90261,-7.10081l0.00491,0c1.03124,0 1.99372,0.40758 2.71559,1.14419l3.11827,3.1821c0.02455,0.02455 0.06383,0.03438 0.09821,0.01964l4.65039,-2.22944c0.03438,-0.01473 0.05402,-0.04911 0.04911,-0.08839l-0.52544,-4.40977c-0.12277,-1.02142 0.16696,-2.0281 0.81026,-2.82853s1.56159,-1.30132 2.58791,-1.40936l4.43432,-0.45178c0.03438,-0.00491 0.06383,-0.02947 0.07366,-0.06383l1.15891,-5.0236c0.00983,-0.03438 -0.00491,-0.07366 -0.03928,-0.0933l-3.77138,-2.34238c-0.8741,-0.54508 -1.48302,-1.39462 -1.70891,-2.3964c-0.22589,-1.00177 -0.04419,-2.03302 0.51562,-2.89729l2.41113,-3.74683c0.01964,-0.02947 0.01964,-0.06875 -0.00491,-0.09821l-3.20175,-4.04147c-0.02455,-0.02947 -0.05893,-0.03928 -0.0933,-0.02947l-4.22808,1.50266c-0.9674,0.34375 -2.00846,0.28973 -2.93166,-0.15714c-0.92321,-0.44687 -1.61561,-1.22766 -1.94953,-2.19998l-1.45355,-4.26245c-0.00983,-0.03438 -0.04419,-0.05893 -0.07857,-0.05893l-5.15619,0c-0.03438,0 -0.06875,0.02455 -0.07857,0.05893l-1.43391,4.19861c-0.33392,0.97231 -1.02632,1.75802 -1.95444,2.20489c-0.92811,0.44687 -1.96917,0.50089 -2.94149,0.15223l-4.1937,-1.50757c-0.03438,-0.00983 -0.07366,0 -0.0933,0.02455l-3.21648,4.02674c-0.02455,0.02947 -0.02455,0.06875 -0.00491,0.09821l2.39149,3.74192c0.55491,0.86919 0.73168,1.89551 0.50089,2.90219c-0.2308,1.00177 -0.83972,1.85132 -1.71382,2.39149l-3.79594,2.33747c-0.02947,0.01964 -0.04419,0.05402 -0.03928,0.0933l1.14419,5.02851c0.00983,0.03438 0.03928,0.06383 0.07366,0.06383l4.41468,0.46651c1.02142,0.10804 1.93971,0.60892 2.583,1.41427c0.63838,0.80534 0.92321,1.81204 0.80044,2.83345l-0.54017,4.4245c-0.00491,0.03438 0.01473,0.06875 0.04911,0.08839l4.64057,2.24417c0.03438,0.01473 0.07366,0.00983 0.09821,-0.01473l3.11827,-3.16246c0.71696,-0.72678 1.67945,-1.12945 2.70577,-1.12945l-0.00002,0.00001z"/>
  </g>
 </g>
</svg>