<svg width="128" height="128" xmlns="http://www.w3.org/2000/svg">
 <g>
  <title>Layer 1</title>
  <path stroke="null" fill="#bfbfbf" d="m69.42426,27.61641c-3.47886,-1.41025 -7.36967,-1.41025 -10.84853,0l-8.4335,3.41899l36.93005,14.36165l12.99105,-5.01936c-0.52321,-0.43401 -1.11727,-0.79302 -1.76946,-1.0574l-28.86961,-11.70388zm33.07573,18.01095l-35.61327,13.75959l0,42.05432c0.86163,-0.17594 1.71132,-0.43158 2.53753,-0.76653l28.86961,-11.70361c2.54254,-1.03103 4.20612,-3.50042 4.20612,-6.24393l0,-37.09983zm-41.38827,55.81353l0,-42.05393l-35.61173,-13.75898l0,37.09922c0,2.74351 1.66362,5.2129 4.2062,6.24393l28.86953,11.70361c0.82582,0.33495 1.67475,0.5902 2.53599,0.76615zm-33.17572,-61.06277l36.06322,13.93353l15.08045,-5.82651l-36.73847,-14.28716l-12.63501,5.12231c-0.65234,0.26446 -1.24682,0.62362 -1.77019,1.05783z"/>
 </g>

</svg>