<svg width="128" height="128" xmlns="http://www.w3.org/2000/svg">
 <g>
  <title>Layer 1</title>
   <path stroke="null" fill="#bfbfbf" d="m69.42125,22.90729c-3.16742,-2.58229 -7.67509,-2.58229 -10.84251,0l-29.83741,24.32618c-2.04908,1.67045 -3.24134,4.19582 -3.24134,6.86523l0,44.1287c0,4.86119 3.87833,8.80201 8.6625,8.80201l9.85147,0c4.78419,0 8.6625,-3.94081 8.6625,-8.80201l0,-19.50682c0,-3.12688 2.53489,-5.66176 5.66176,-5.66176l11.32353,0c3.12688,0 5.66176,2.53489 5.66176,5.66176l0,19.50682c0,4.86119 3.87831,8.80201 8.6625,8.80201l9.85147,0c4.78419,0 8.6625,-3.94081 8.6625,-8.80201l0,-44.1287c0,-2.66964 -1.19214,-5.19478 -3.24125,-6.86523l-29.8375,-24.32618z"/>
 </g>

</svg>