<svg width="128" height="128" xmlns="http://www.w3.org/2000/svg">
 <g>
  <title>Layer maximize</title>
  <path stroke="null" fill="#bfbfbf" d="m25,39.18182c0,-1.95808 1.58737,-3.54545 3.54545,-3.54545l63.81818,0c1.95815,0 3.54545,1.58737 3.54545,3.54545c0,1.95808 -1.5873,3.54545 -3.54545,3.54545l-63.81818,0c-1.95808,0 -3.54545,-1.58737 -3.54545,-3.54545zm0,49.63636c0,-1.95815 1.58737,-3.54545 3.54545,-3.54545l56.72727,0c1.95815,0 3.54545,1.5873 3.54545,3.54545c0,1.95815 -1.5873,3.54545 -3.54545,3.54545l-56.72727,0c-1.95808,0 -3.54545,-1.5873 -3.54545,-3.54545zm3.54545,-28.36364c-1.95808,0 -3.54545,1.5873 -3.54545,3.54545c0,1.95815 1.58737,3.54545 3.54545,3.54545l70.90909,0c1.95815,0 3.54545,-1.5873 3.54545,-3.54545c0,-1.95815 -1.5873,-3.54545 -3.54545,-3.54545l-70.90909,0z"/>
 </g>

</svg>