<svg width="128" height="128" xmlns="http://www.w3.org/2000/svg">
 <g>
  <title>Layer 1</title>
  <path stroke="null" fill="#bfbfbf" d="m63.99785,7.00156c1.96734,0 3.56247,1.59496 3.56247,3.56247l0,7.12494c0,1.96748 -1.59513,3.56247 -3.56247,3.56247c-1.96762,0 -3.56247,-1.59499 -3.56247,-3.56247l0,-7.12494c0,-1.96751 1.59485,-3.56247 3.56247,-3.56247zm28.56504,57.12928c0,15.7011 -12.72828,28.42938 -28.42938,28.42938c-15.70138,0 -28.42967,-12.72828 -28.42967,-28.42938c0,-15.7011 12.72828,-28.42938 28.42967,-28.42938c15.7011,0 28.42938,12.72828 28.42938,28.42938zm24.87489,3.43052c1.96734,0 3.56247,-1.59485 3.56247,-3.56247c0,-1.96734 -1.59513,-3.56247 -3.56247,-3.56247l-7.12494,0c-1.96762,0 -3.56247,1.59513 -3.56247,3.56247c0,1.96762 1.59485,3.56247 3.56247,3.56247l7.12494,0zm-53.43993,39.18805c1.96734,0 3.56247,1.59513 3.56247,3.56247l0,7.12409c0,1.96762 -1.59513,3.56247 -3.56247,3.56247c-1.96762,0 -3.56247,-1.59485 -3.56247,-3.56247l0,-7.12409c0,-1.96734 1.59485,-3.56247 3.56247,-3.56247zm-46.30943,-39.18805c1.96748,0 3.56247,-1.59485 3.56247,-3.56247c0,-1.96734 -1.59499,-3.56247 -3.56247,-3.56247l-7.1262,0c-1.96748,0 -3.56247,1.59513 -3.56247,3.56247c0,1.96762 1.59499,3.56247 3.56247,3.56247l7.1262,0zm4.60591,-45.26827c1.39122,-1.39122 3.64692,-1.39122 5.03799,0l7.12494,7.12503c1.39136,1.39107 1.39136,3.64683 0,5.03791c-1.39107,1.39136 -3.64683,1.39136 -5.03791,0l-7.12503,-7.12494c-1.39125,-1.39107 -1.39125,-3.64675 0,-5.03799zm5.03799,83.4138c-1.39107,1.39136 -3.64677,1.39136 -5.03799,0c-1.39125,-1.39107 -1.39125,-3.64683 0,-5.03791l7.12503,-7.12494c1.39107,-1.39136 3.64683,-1.39136 5.03791,0c1.39136,1.39107 1.39136,3.64683 0,5.03791l-7.12494,7.12494zm78.37723,-83.4138c-1.39107,-1.39122 -3.64683,-1.39122 -5.03819,0l-7.12494,7.12503c-1.39107,1.39107 -1.39107,3.64683 0,5.03791c1.39136,1.39136 3.64712,1.39136 5.03819,0l7.12494,-7.12494c1.39136,-1.39107 1.39136,-3.64675 0,-5.03799zm-5.03819,83.4138c1.39136,1.39136 3.64712,1.39136 5.03819,0c1.39136,-1.39107 1.39136,-3.64683 0,-5.03791l-7.12494,-7.12494c-1.39107,-1.39136 -3.64683,-1.39136 -5.03819,0c-1.39107,1.39107 -1.39107,3.64683 0,5.03791l7.12494,7.12494z"/>
 </g>

</svg>