<svg width="128" height="128" xmlns="http://www.w3.org/2000/svg">
 <g>
  <title>Layer maximize</title>
  <path stroke="null" d="m80.47575,22.4917c-12.22715,0 -22.13969,9.91227 -22.13969,22.13969c0,1.78414 0.21174,3.52206 0.61226,5.18869l-33.45634,33.45634c-4.51376,4.51368 -4.51376,11.83186 0,16.34554c4.51376,4.51408 11.83201,4.51408 16.34578,0l16.55989,-16.55969c0.9363,-13.60021 12.26499,-24.34198 26.1027,-24.34198c3.85956,0 7.52347,0.83567 10.82148,2.33554c4.47946,-4.05116 7.29362,-9.90912 7.29362,-16.42443c0,-2.44997 -0.39891,-4.81289 -1.13798,-7.02367c-0.33169,-0.9919 -1.15288,-1.74155 -2.1709,-1.98138c-1.01802,-0.23983 -2.08798,0.06433 -2.82744,0.80396l-9.83847,9.83932c-1.17864,1.17912 -3.09029,1.1792 -4.26934,0.00013l-3.53309,-3.53309c-1.17904,-1.17896 -1.17904,-3.09046 -0.00041,-4.26946l9.83888,-9.83956c0.73947,-0.73958 1.04338,-1.80922 0.80346,-2.82715c-0.23991,-1.01798 -0.98944,-1.83928 -1.9813,-2.17086c-2.21075,-0.7389 -4.57325,-1.1379 -7.02311,-1.1379l0,-0.00001zm-8.94847,48.20656c1.2672,4.3889 -1.36703,8.95127 -5.8014,10.0482l-2.35164,0.58208c-0.18074,1.15811 -0.27453,2.346 -0.27453,3.55724c0,1.26639 0.10265,2.50823 0.3003,3.71706l2.1713,0.5229c4.47866,1.0784 7.14066,5.68749 5.83683,10.10576l-0.74993,2.54083c1.76795,1.55259 3.78227,2.81295 5.9745,3.70981l1.98573,-2.08798c3.17403,-3.33826 8.49681,-3.33745 11.67004,0.00202l2.00747,2.11212c2.18781,-0.88639 4.2005,-2.13507 5.96886,-3.67478l-0.79703,-2.76102c-1.2672,-4.38849 1.36703,-8.95127 5.8014,-10.0482l2.34962,-0.58126c0.18074,-1.15811 0.27453,-2.34641 0.27453,-3.55724c0,-1.2672 -0.10265,-2.50944 -0.3003,-3.71826l-2.16969,-0.5225c-4.47826,-1.0784 -7.14025,-5.68749 -5.83643,-10.10536l0.74913,-2.53962c-1.76756,-1.55259 -3.78227,-2.81335 -5.9745,-3.71061l-1.98492,2.08757c-3.17403,3.33786 -8.49681,3.33706 -11.67004,-0.00202l-2.00787,-2.11293c-2.18781,0.88639 -4.2005,2.13507 -5.96886,3.67398l0.79743,2.76223l-0.00001,-0.00001zm12.96943,20.22562c-3.22313,0 -5.83562,-2.70345 -5.83562,-6.0381c0,-3.33504 2.61248,-6.0381 5.83562,-6.0381c3.22274,0 5.83522,2.70306 5.83522,6.0381c0,3.33464 -2.61248,6.0381 -5.83522,6.0381z" fill="#bfbfbf"/>
 </g>

</svg>