<svg width="128" height="128" xmlns="http://www.w3.org/2000/svg">
 <g>
<title>Layer dark</title>
   <g stroke="null" id="svg_3">
   <path stroke="null" d="m76.44517,12.6401a3.73917,3.73917 0 0 0 -4.38925,4.70564c5.10829,17.29229 3.15241,33.34203 -5.88488,48.41386c-8.8705,14.78415 -24.5233,22.56169 -47.44742,23.28072c-3.56087,0.11508 -4.95874,4.67685 -2.06518,6.76504c9.96927,7.19073 19.24245,13.6624 28.3085,16.6825c20.36992,6.78805 38.64594,1.65101 53.91909,-12.8858c16.74003,-15.92893 18.99508,-51.80788 3.98078,-68.34083c-9.60684,-10.58479 -18.33926,-16.82632 -26.42165,-18.62113l0.00002,0.00002l-0.00001,-0.00001l0.00001,0zm4.5158,9.71611l0.98368,0.55798c4.63661,2.74398 9.78517,7.19073 15.39392,13.36326c12.22425,13.46106 10.25689,44.72639 -3.60112,57.91708l-1.1793,1.09302c-12.39684,11.17155 -27.19828,15.05454 -43.77727,10.03827c-5.56851,-1.69128 -10.92993,-5.02775 -17.02193,-8.57135l-1.93858,-1.16202l0.4602,-0.05753c19.41502,-2.81879 33.61242,-11.45915 42.29308,-25.93269c8.62314,-14.37574 11.50519,-29.72364 8.65764,-45.87119l-0.27035,-1.38065l0,0.00574l0.00002,0.00002l0.00002,0.00002l0,0.00002l-0.00001,0.00001l0.00001,0.00001z" fill="#bfbfbf" p-id="1367" id="svg_1"/>
   <path stroke="null" d="m35.14274,50.02224l-8.8554,4.65667a1.10348,1.10348 0 0 1 -1.60002,-1.15864l1.68834,-9.87058a1.10348,1.10348 0 0 0 -0.3145,-0.9766l-7.17257,-6.98497a1.10348,1.10348 0 0 1 0.61792,-1.87588l9.90369,-1.44556a1.10348,1.10348 0 0 0 0.8276,-0.60692l4.43046,-8.97128a1.10348,1.10348 0 0 1 1.98075,0l4.42492,8.97677a1.10348,1.10348 0 0 0 0.8276,0.60692l9.9092,1.43451a1.10348,1.10348 0 0 1 0.60692,1.88143l-7.15603,6.98497a1.10348,1.10348 0 0 0 -0.32001,0.9766l1.69382,9.86506a1.10348,1.10348 0 0 1 -1.60002,1.16415l-8.8609,-4.65667a1.10348,1.10348 0 0 0 -1.02622,0l-0.0055,0l-0.00002,0l0,0.00001l-0.00001,0z" fill="#bfbfbf" p-id="1368" id="svg_2"/>
  </g>
 </g>

</svg>