<svg width="128" height="128" xmlns="http://www.w3.org/2000/svg">
 <g>
   <title>Layer light</title>
 <path stroke="null" d="m63.99996,99.18941c-19.44679,0 -35.18941,-15.74262 -35.18941,-35.18941c0,-19.44679 15.74262,-35.18941 35.18941,-35.18941c19.44679,0 35.18941,15.74262 35.18941,35.18941c0,19.44679 -15.74262,35.18941 -35.18941,35.18941zm0,-62.97048c-15.37221,0 -27.78112,12.40891 -27.78112,27.78112s12.40891,27.78112 27.78112,27.78112s27.78112,-12.40891 27.78112,-27.78112s-12.40891,-27.78112 -27.78112,-27.78112zm0,-12.40891c-2.03727,0 -3.70416,-1.66686 -3.70416,-3.70416l0,-7.96393c0,-2.03727 1.66686,-3.70416 3.70416,-3.70416c2.03727,0 3.70416,1.66686 3.70416,3.70416l0,7.96393c0,2.03727 -1.66686,3.70416 -3.70416,3.70416zm0,95.75222c-2.03727,0 -3.70416,-1.66686 -3.70416,-3.70416l0,-7.96393c0,-2.03727 1.66686,-3.70416 3.70416,-3.70416c2.03727,0 3.70416,1.66686 3.70416,3.70416l0,7.96393c0,2.03727 -1.66686,3.70416 -3.70416,3.70416zm-30.92961,-82.97292c-0.92605,0 -1.85208,-0.37041 -2.5929,-1.11123l-5.55621,-5.55621a3.58068,3.58068 0 0 1 0,-5.1858c1.48167,-1.48167 3.70416,-1.48167 5.1858,0l5.55621,5.55621c1.48167,1.48167 1.48167,3.70416 0,5.1858c-0.74082,0.92605 -1.66686,1.11123 -2.5929,1.11123l0.00001,0zm67.60069,67.78587c-0.92605,0 -1.85208,-0.37041 -2.5929,-1.11123l-5.74144,-5.55621a3.58068,3.58068 0 0 1 0,-5.1858c1.48167,-1.48167 3.70416,-1.48167 5.1858,0l5.74144,5.55621c1.48167,1.48167 1.48167,3.70416 0,5.1858c-0.74082,0.74082 -1.66686,1.11123 -2.5929,1.11123l0.00001,0zm-80.56519,-36.67105l-7.96393,0c-2.03727,0 -3.70416,-1.66686 -3.70416,-3.70416c0,-2.03727 1.66686,-3.70416 3.70416,-3.70416l7.96393,0c2.03727,0 3.70416,1.66686 3.70416,3.70416c0,2.03727 -1.66686,3.70416 -3.70416,3.70416zm95.75222,0l-7.96393,0c-2.03727,0 -3.70416,-1.66686 -3.70416,-3.70416c0,-2.03727 1.66686,-3.70416 3.70416,-3.70416l7.96393,0c2.03727,0 3.70416,1.66686 3.70416,3.70416c0,2.03727 -1.66686,3.70416 -3.70416,3.70416zm-86.92398,40.74562a3.77204,3.77204 0 0 1 -2.67932,-1.1483a3.69799,3.69799 0 0 1 0,-5.35249l5.73527,-5.73527a3.69799,3.69799 0 0 1 5.35249,0a3.69799,3.69799 0 0 1 0,5.35249l-5.74144,5.74144a3.77204,3.77204 0 0 1 -2.67318,1.14213l0.00619,0l0,0.00001l-0.00001,0zm69.76145,-69.96518a3.77204,3.77204 0 0 1 -2.67318,-1.14213a3.69799,3.69799 0 0 1 0,-5.35249l5.92662,-5.74144a3.69799,3.69799 0 0 1 5.35249,0a3.69799,3.69799 0 0 1 0,5.35867l-5.92662,5.73527c-0.57413,0.95072 -1.5249,1.14213 -2.67318,1.14213l-0.00619,0l0.00005,0l0.00001,-0.00001l0.00001,0l-0.00001,0z" fill="#bfbfbf" p-id="921" id="svg_1"/>
 </g>

</svg>